# xmcd CD database file
# Copyright (C) 1993-1998 Ti Kan
#
# Track frame offsets:
#	150
#	21214
#	48491
#	65930
#	90287
#	111451
#	132266
#	154345
#	184636
#	208862
#	232648
#
# Disc length: 3391 seconds
#
# Revision: 1
# Processed by: cddbd v1.4b41PL1 Copyright (c) Steve Scherf et al.
# Submitted via: CDValet v3.31 - Copyright (c) 1997 Greg Leichner
#
DISCID=950d3d0b
DTITLE=Mahogany - Cherish The Day and other R&B Ballads
DYEAR=1900
DGENRE=
TTITLE0=Hello
TTITLE1=What's Going On?
TTITLE2=Exhale (Shoop, Shoop)
TTITLE3=Cherish The Day
TTITLE4=Sexual Healing
TTITLE5=Ooh, Baby, Baby
TTITLE6=Breathe Again
TTITLE7=People Make the World Go 'Round
TTITLE8=You Mean The World To Me
TTITLE9=Killing Me Softly With His Song
TTITLE10=Rock Your Baby
EXTD=
EXTT0=
EXTT1=
EXTT2=
EXTT3=
EXTT4=
EXTT5=
EXTT6=
EXTT7=
EXTT8=
EXTT9=
EXTT10=
PLAYORDER=
